<svg xmlns="http://www.w3.org/2000/svg" xmlns:xlink="http://www.w3.org/1999/xlink" contentStyleType="text/css" height="311px" preserveAspectRatio="none" style="width:269px;height:311px;background:#FFFFFF;" version="1.1" viewBox="0 0 269 311" width="269px" zoomAndPan="magnify"><defs/><g><line style="stroke:#181818;stroke-width:0.5;stroke-dasharray:5.0,5.0;" x1="42" x2="42" y1="83.6211" y2="228.7852"/><line style="stroke:#181818;stroke-width:0.5;stroke-dasharray:5.0,5.0;" x1="139.4688" x2="139.4688" y1="83.6211" y2="228.7852"/><line style="stroke:#181818;stroke-width:0.5;stroke-dasharray:5.0,5.0;" x1="234.1445" x2="234.1445" y1="83.6211" y2="228.7852"/><text fill="#000000" font-family="sans-serif" font-size="14" lengthAdjust="spacing" textLength="68.4688" x="5" y="80.1074">Web Client</text><ellipse cx="42.2344" cy="13.5" fill="#E2E2F0" rx="8" ry="8" style="stroke:#181818;stroke-width:0.5;"/><path d="M42.2344,21.5 L42.2344,48.5 M29.2344,29.5 L55.2344,29.5 M42.2344,48.5 L29.2344,63.5 M42.2344,48.5 L55.2344,63.5 " fill="none" style="stroke:#181818;stroke-width:0.5;"/><text fill="#000000" font-family="sans-serif" font-size="14" lengthAdjust="spacing" textLength="68.4688" x="5" y="242.8926">Web Client</text><ellipse cx="42.2344" cy="254.9063" fill="#E2E2F0" rx="8" ry="8" style="stroke:#181818;stroke-width:0.5;"/><path d="M42.2344,262.9063 L42.2344,289.9063 M29.2344,270.9063 L55.2344,270.9063 M42.2344,289.9063 L29.2344,304.9063 M42.2344,289.9063 L55.2344,304.9063 " fill="none" style="stroke:#181818;stroke-width:0.5;"/><rect fill="#E2E2F0" height="32.6211" rx="2.5" ry="2.5" style="stroke:#181818;stroke-width:0.5;" width="101.1445" x="89.4688" y="50"/><text fill="#000000" font-family="sans-serif" font-size="14" lengthAdjust="spacing" textLength="87.1445" x="96.4688" y="72.1074">Notes Service</text><rect fill="#E2E2F0" height="32.6211" rx="2.5" ry="2.5" style="stroke:#181818;stroke-width:0.5;" width="101.1445" x="89.4688" y="227.7852"/><text fill="#000000" font-family="sans-serif" font-size="14" lengthAdjust="spacing" textLength="87.1445" x="96.4688" y="249.8926">Notes Service</text><text fill="#000000" font-family="sans-serif" font-size="14" lengthAdjust="spacing" textLength="19.4482" x="221.4204" y="80.1074">BD</text><path d="M216.1445,29 C216.1445,19 234.1445,19 234.1445,19 C234.1445,19 252.1445,19 252.1445,29 L252.1445,55 C252.1445,65 234.1445,65 234.1445,65 C234.1445,65 216.1445,65 216.1445,55 L216.1445,29 " fill="#E2E2F0" style="stroke:#181818;stroke-width:1.5;"/><path d="M216.1445,29 C216.1445,39 234.1445,39 234.1445,39 C234.1445,39 252.1445,39 252.1445,29 " fill="none" style="stroke:#181818;stroke-width:1.5;"/><text fill="#000000" font-family="sans-serif" font-size="14" lengthAdjust="spacing" textLength="19.4482" x="221.4204" y="242.8926">BD</text><path d="M216.1445,256.4063 C216.1445,246.4063 234.1445,246.4063 234.1445,246.4063 C234.1445,246.4063 252.1445,246.4063 252.1445,256.4063 L252.1445,282.4063 C252.1445,292.4063 234.1445,292.4063 234.1445,292.4063 C234.1445,292.4063 216.1445,292.4063 216.1445,282.4063 L216.1445,256.4063 " fill="#E2E2F0" style="stroke:#181818;stroke-width:1.5;"/><path d="M216.1445,256.4063 C216.1445,266.4063 234.1445,266.4063 234.1445,266.4063 C234.1445,266.4063 252.1445,266.4063 252.1445,256.4063 " fill="none" style="stroke:#181818;stroke-width:1.5;"/><polygon fill="#181818" points="128.041,112.9121,138.041,116.9121,128.041,120.9121,132.041,116.9121" style="stroke:#181818;stroke-width:1.0;"/><line style="stroke:#181818;stroke-width:1.0;" x1="42.2344" x2="134.041" y1="116.9121" y2="116.9121"/><text fill="#000000" font-family="sans-serif" font-size="13" lengthAdjust="spacing" textLength="70.1035" x="49.2344" y="111.6494">get all notes</text><polygon fill="#181818" points="222.1445,144.2031,232.1445,148.2031,222.1445,152.2031,226.1445,148.2031" style="stroke:#181818;stroke-width:1.0;"/><line style="stroke:#181818;stroke-width:1.0;" x1="140.041" x2="228.1445" y1="148.2031" y2="148.2031"/><text fill="#000000" font-family="sans-serif" font-size="13" lengthAdjust="spacing" textLength="70.1035" x="147.041" y="142.9404">get all notes</text><polygon fill="#181818" points="151.041,175.4941,141.041,179.4941,151.041,183.4941,147.041,179.4941" style="stroke:#181818;stroke-width:1.0;"/><line style="stroke:#181818;stroke-width:1.0;" x1="145.041" x2="233.1445" y1="179.4941" y2="179.4941"/><text fill="#000000" font-family="sans-serif" font-size="13" lengthAdjust="spacing" textLength="51.3018" x="157.041" y="174.2314">list notes</text><polygon fill="#181818" points="53.2344,206.7852,43.2344,210.7852,53.2344,214.7852,49.2344,210.7852" style="stroke:#181818;stroke-width:1.0;"/><line style="stroke:#181818;stroke-width:1.0;" x1="47.2344" x2="139.041" y1="210.7852" y2="210.7852"/><text fill="#000000" font-family="sans-serif" font-size="13" lengthAdjust="spacing" textLength="51.3018" x="59.2344" y="205.5225">list notes</text><!--SRC=[RSmz3uCW40RW_Nx5XQMJPJTD1tKqB0pE9xrO4aGAPtz_qJJfqlLvFovFaLHQhLEWAFiQhcvRTU7Npj5ny_2qP5e1oCcMKKqyOnyyHr581ViH4cNnpgUwHcKsuOAMyzixFXl6ma12CnL6LDsW0FeHctiDMbnOa4B0UCp0sCExuO_VcjE3B_B5UbBnEFdX1m00]--></g></svg>