<svg xmlns="http://www.w3.org/2000/svg" xmlns:xlink="http://www.w3.org/1999/xlink" contentStyleType="text/css" height="311px" preserveAspectRatio="none" style="width:340px;height:311px;background:#FFFFFF;" version="1.1" viewBox="0 0 340 311" width="340px" zoomAndPan="magnify"><defs/><g><line style="stroke:#181818;stroke-width:0.5;stroke-dasharray:5.0,5.0;" x1="42" x2="42" y1="83.6211" y2="228.7852"/><line style="stroke:#181818;stroke-width:0.5;stroke-dasharray:5.0,5.0;" x1="173.3501" x2="173.3501" y1="83.6211" y2="228.7852"/><line style="stroke:#181818;stroke-width:0.5;stroke-dasharray:5.0,5.0;" x1="305.6104" x2="305.6104" y1="83.6211" y2="228.7852"/><text fill="#000000" font-family="sans-serif" font-size="14" lengthAdjust="spacing" textLength="68.4688" x="5" y="80.1074">Web Client</text><ellipse cx="42.2344" cy="13.5" fill="#E2E2F0" rx="8" ry="8" style="stroke:#181818;stroke-width:0.5;"/><path d="M42.2344,21.5 L42.2344,48.5 M29.2344,29.5 L55.2344,29.5 M42.2344,48.5 L29.2344,63.5 M42.2344,48.5 L55.2344,63.5 " fill="none" style="stroke:#181818;stroke-width:0.5;"/><text fill="#000000" font-family="sans-serif" font-size="14" lengthAdjust="spacing" textLength="68.4688" x="5" y="242.8926">Web Client</text><ellipse cx="42.2344" cy="254.9063" fill="#E2E2F0" rx="8" ry="8" style="stroke:#181818;stroke-width:0.5;"/><path d="M42.2344,262.9063 L42.2344,289.9063 M29.2344,270.9063 L55.2344,270.9063 M42.2344,289.9063 L29.2344,304.9063 M42.2344,289.9063 L55.2344,304.9063 " fill="none" style="stroke:#181818;stroke-width:0.5;"/><rect fill="#E2E2F0" height="32.6211" rx="2.5" ry="2.5" style="stroke:#181818;stroke-width:0.5;" width="101.1445" x="123.3501" y="50"/><text fill="#000000" font-family="sans-serif" font-size="14" lengthAdjust="spacing" textLength="87.1445" x="130.3501" y="72.1074">Notes Service</text><rect fill="#E2E2F0" height="32.6211" rx="2.5" ry="2.5" style="stroke:#181818;stroke-width:0.5;" width="101.1445" x="123.3501" y="227.7852"/><text fill="#000000" font-family="sans-serif" font-size="14" lengthAdjust="spacing" textLength="87.1445" x="130.3501" y="249.8926">Notes Service</text><text fill="#000000" font-family="sans-serif" font-size="14" lengthAdjust="spacing" textLength="19.4482" x="292.8862" y="80.1074">BD</text><path d="M287.6104,29 C287.6104,19 305.6104,19 305.6104,19 C305.6104,19 323.6104,19 323.6104,29 L323.6104,55 C323.6104,65 305.6104,65 305.6104,65 C305.6104,65 287.6104,65 287.6104,55 L287.6104,29 " fill="#E2E2F0" style="stroke:#181818;stroke-width:1.5;"/><path d="M287.6104,29 C287.6104,39 305.6104,39 305.6104,39 C305.6104,39 323.6104,39 323.6104,29 " fill="none" style="stroke:#181818;stroke-width:1.5;"/><text fill="#000000" font-family="sans-serif" font-size="14" lengthAdjust="spacing" textLength="19.4482" x="292.8862" y="242.8926">BD</text><path d="M287.6104,256.4063 C287.6104,246.4063 305.6104,246.4063 305.6104,246.4063 C305.6104,246.4063 323.6104,246.4063 323.6104,256.4063 L323.6104,282.4063 C323.6104,292.4063 305.6104,292.4063 305.6104,292.4063 C305.6104,292.4063 287.6104,292.4063 287.6104,282.4063 L287.6104,256.4063 " fill="#E2E2F0" style="stroke:#181818;stroke-width:1.5;"/><path d="M287.6104,256.4063 C287.6104,266.4063 305.6104,266.4063 305.6104,266.4063 C305.6104,266.4063 323.6104,266.4063 323.6104,256.4063 " fill="none" style="stroke:#181818;stroke-width:1.5;"/><polygon fill="#181818" points="161.9224,112.9121,171.9224,116.9121,161.9224,120.9121,165.9224,116.9121" style="stroke:#181818;stroke-width:1.0;"/><line style="stroke:#181818;stroke-width:1.0;" x1="42.2344" x2="167.9224" y1="116.9121" y2="116.9121"/><text fill="#000000" font-family="sans-serif" font-size="13" lengthAdjust="spacing" textLength="107.688" x="49.2344" y="111.6494">search note by {id}</text><polygon fill="#181818" points="293.6104,144.2031,303.6104,148.2031,293.6104,152.2031,297.6104,148.2031" style="stroke:#181818;stroke-width:1.0;"/><line style="stroke:#181818;stroke-width:1.0;" x1="173.9224" x2="299.6104" y1="148.2031" y2="148.2031"/><text fill="#000000" font-family="sans-serif" font-size="13" lengthAdjust="spacing" textLength="107.688" x="180.9224" y="142.9404">search note by {id}</text><polygon fill="#181818" points="184.9224,175.4941,174.9224,179.4941,184.9224,183.4941,180.9224,179.4941" style="stroke:#181818;stroke-width:1.0;"/><line style="stroke:#181818;stroke-width:1.0;" x1="178.9224" x2="304.6104" y1="179.4941" y2="179.4941"/><text fill="#000000" font-family="sans-serif" font-size="13" lengthAdjust="spacing" textLength="25.3018" x="190.9224" y="174.2314">note</text><polygon fill="#181818" points="53.2344,206.7852,43.2344,210.7852,53.2344,214.7852,49.2344,210.7852" style="stroke:#181818;stroke-width:1.0;"/><line style="stroke:#181818;stroke-width:1.0;" x1="47.2344" x2="172.9224" y1="210.7852" y2="210.7852"/><text fill="#000000" font-family="sans-serif" font-size="13" lengthAdjust="spacing" textLength="25.3018" x="59.2344" y="205.5225">note</text><!--SRC=[TOon3eCm34HtVuMLfLFAZgeEX16nC32RO9L84DB4LAgg_diJzexltjrT5f6GwgeAAtavjlLgzwrA_3pOMzQpeqUa3O2ix17Lo1EQrR4NXPJGT10eYhCkv3MgVXTEE71yESjden-W9Q694YEgfbK0faDzpwB6n1JjWZwlS7hZnyrVw8TYc_QllUdJbhXSPInN1Ny0]--></g></svg>